<svg width="16" height="13" viewBox="0 0 16 13" fill="none" xmlns="http://www.w3.org/2000/svg">
<g clip-path="url(#clip0_432_8)">
<path d="M9.80944 4.87946H13.5118C13.9582 4.87946 14.3862 5.05677 14.7018 5.37238C15.0175 5.68798 15.1948 6.11604 15.1948 6.56238C15.1948 7.00871 15.0175 7.43677 14.7018 7.75238C14.3862 8.06798 13.9582 8.24529 13.5118 8.24529H10.8057C10.7049 8.24535 10.6053 8.26807 10.5145 8.31176C10.4236 8.35546 10.3437 8.41901 10.2807 8.49773L7.99189 11.3587C7.92886 11.4374 7.84896 11.501 7.75808 11.5446C7.6672 11.5883 7.56766 11.6111 7.46682 11.6111H6.09087C5.98092 11.611 5.87266 11.584 5.77556 11.5325C5.67845 11.4809 5.59546 11.4063 5.53383 11.3153C5.4722 11.2242 5.43381 11.1195 5.42201 11.0102C5.41022 10.9008 5.42538 10.7903 5.46617 10.6882L6.07337 9.1682C6.11414 9.06615 6.1293 8.95567 6.11754 8.84641C6.10578 8.73715 6.06745 8.63243 6.0059 8.5414C5.94435 8.45036 5.86144 8.37578 5.76443 8.32416C5.66741 8.27255 5.55923 8.24547 5.44934 8.24529H2.84823C2.71651 8.24528 2.58769 8.20662 2.47773 8.13411C2.36776 8.06159 2.28149 7.95842 2.22959 7.83735L0.786996 4.47152C0.743084 4.36909 0.725293 4.25735 0.73522 4.14634C0.745147 4.03533 0.782481 3.92852 0.843872 3.8355C0.905263 3.74248 0.98879 3.66615 1.08696 3.61338C1.18512 3.56061 1.29486 3.53303 1.40631 3.53313H2.66176C2.78674 3.5332 2.90924 3.56806 3.01553 3.6338C3.12182 3.69955 3.20771 3.79359 3.26357 3.90539L3.56515 4.5072C3.62102 4.619 3.70691 4.71304 3.8132 4.77879C3.91949 4.84454 4.04198 4.87939 4.16696 4.87946H6.44361M9.80944 4.87946L7.99189 2.45606C7.92919 2.37246 7.84788 2.3046 7.7544 2.25787C7.66093 2.21113 7.55786 2.1868 7.45336 2.1868H6.18646C6.07176 2.18686 5.95897 2.21623 5.85881 2.27212C5.75865 2.32801 5.67442 2.40856 5.61414 2.50614C5.55385 2.60372 5.5195 2.71509 5.51433 2.82968C5.50917 2.94426 5.53338 3.05826 5.58465 3.16087L6.44361 4.87946M9.80944 4.87946H6.44361" stroke="#143463" stroke-width="1.5" stroke-linecap="round" stroke-linejoin="round"/>
</g>
<defs>
<clipPath id="clip0_432_8">
<rect width="16" height="12.8" fill="white"/>
</clipPath>
</defs>
</svg>
