<svg width="100" height="100" viewBox="0 0 100 100" fill="none" xmlns="http://www.w3.org/2000/svg">
<path d="M52.2925 26.5H53.2749C53.3156 26.5 53.3567 26.5016 53.397 26.5049L53.895 26.5459L53.9302 26.1113C54.0202 26.1425 54.1073 26.1809 54.1919 26.2246L53.9028 26.5488L54.2749 26.8818C54.305 26.9088 54.3347 26.9373 54.3628 26.9668L54.7583 27.3838L55.103 27.7461L55.4653 27.4014L57.9448 30.0117L57.5825 30.3564L57.9272 30.7188L58.7192 31.5527L59.063 31.915L59.4253 31.5703L61.9048 34.1797L61.5425 34.5254L61.8872 34.8877L62.2837 35.3047C62.3098 35.3322 62.3351 35.3604 62.3589 35.3896L62.6558 35.7549L62.6919 36.2236C62.6948 36.2614 62.6958 36.2998 62.6958 36.3379V37.3877H63.1958V40.7881H62.6958V42.8887H63.1958V46.2891H62.6958V48.3896H63.1958V51.79H62.6958V53.8896H63.1958V57.291H62.6958V58.3408C62.6958 58.4212 62.6892 58.4998 62.6772 58.5762L62.6001 59.0703L63.0288 59.1377C62.8271 59.601 62.456 59.9721 61.9927 60.1738L61.9253 59.7451L61.4312 59.8223C61.3548 59.8343 61.2762 59.8408 61.1958 59.8408H60.1362V60.3408H56.6577V59.8408H54.5386V60.3408H51.0601V59.8408H48.9399V60.3408H45.4614V59.8408H43.3423V60.3408H39.8638V59.8408H38.8042C38.7238 59.8408 38.6452 59.8343 38.5688 59.8223L38.0747 59.7451L38.0063 60.1738C37.5433 59.972 37.1718 59.6009 36.9702 59.1377L37.3999 59.0703L37.3228 58.5762L37.3091 58.46L37.3042 58.3408V57.335H36.8042V54.29H37.3042V52.2783H36.8042V49.2324H37.3042V47.2217H36.8042V44.1758H37.3042V42.165H36.8042V39.1191H37.3042V37.1084H36.8042V34.0625H37.3042V32.0508H36.8042V29.0059H37.3042V28C37.3042 27.9598 37.306 27.9201 37.3091 27.8809L37.3228 27.7646L37.3999 27.2705L36.9702 27.2021C37.1719 26.7392 37.5434 26.3677 38.0063 26.166L38.0747 26.5957L38.5688 26.5186C38.6452 26.5066 38.7238 26.5 38.8042 26.5H39.7866V26H42.645V26.5H44.6099V26H47.4692V26.5H49.4341V26H52.2925V26.5ZM63.0103 35.5029C63.0388 35.5649 63.0644 35.6278 63.0864 35.6924L62.7456 35.7178L63.0103 35.5029Z" stroke="#D9D9D9" stroke-linecap="square" stroke-linejoin="round" stroke-dasharray="1 4"/>
<path d="M52.0667 27.2719V37.7649H61.9237" stroke="#D9D9D9" stroke-linecap="square" stroke-linejoin="round" stroke-dasharray="1 4"/>
<path d="M43.7227 41.1663H56.2772" stroke="#D9D9D9" stroke-linecap="round" stroke-dasharray="1 4"/>
<path d="M43.7227 47.4211H56.2772" stroke="#D9D9D9" stroke-linecap="round" stroke-dasharray="1 4"/>
<path d="M37.2344 40.6435L36.9776 40.2305C36.6981 39.7809 36.2517 39.4605 35.7362 39.3395L26.7299 37.2252C26.1962 37.0999 25.6345 37.1992 25.176 37.4998L15.5214 43.8315C14.5977 44.4372 14.34 45.6771 14.9457 46.6007L28.4166 67.1413C29.0181 68.0586 30.2462 68.3202 31.1693 67.7277L42.6428 60.3632" stroke="#D9D9D9" stroke-linecap="square" stroke-linejoin="round" stroke-dasharray="1 3"/>
<path d="M25.0371 38.8552L29.8202 46.1485L36.6715 41.6553" stroke="#D9D9D9" stroke-linecap="square" stroke-linejoin="round" stroke-dasharray="1 3"/>
<path d="M27.8167 55.7402L36.5429 50.0175" stroke="#D9D9D9" stroke-linecap="round" stroke-dasharray="1 3"/>
<path d="M30.2455 59.4439L36.0925 55.6436" stroke="#D9D9D9" stroke-linecap="round" stroke-dasharray="1 3"/>
<path d="M56.3285 60.2469L64.2901 66.7554C65.1599 67.4664 66.4446 67.3217 67.1345 66.435L77.7245 52.8227C78.0393 52.418 78.1867 51.9079 78.1362 51.3977L77.25 42.4387C77.196 41.8931 76.9205 41.3936 76.4878 41.057L67.6625 34.1912C66.7907 33.513 65.5342 33.6699 64.8559 34.5417L63.2296 36.6321" stroke="#D9D9D9" stroke-linecap="square" stroke-linejoin="round" stroke-dasharray="1 3"/>
<path d="M75.211 41.3693L69.9909 48.0792L76.2941 52.9829" stroke="#D9D9D9" stroke-linecap="square" stroke-linejoin="round" stroke-dasharray="1 4"/>
<path d="M63.2416 51.2021L68.5405 55.4991" stroke="#D9D9D9" stroke-linecap="round" stroke-dasharray="1 4"/>
<path d="M62.3808 55.9553L65.8897 58.9065" stroke="#D9D9D9" stroke-linecap="round" stroke-dasharray="1 4"/>
<circle cx="53.606" cy="57.4309" r="10.6295" fill="white" stroke="#666666" stroke-width="2"/>
<path d="M61.7883 65.6132L63.1396 66.9645" stroke="#666666" stroke-width="2"/>
<mask id="path-15-inside-1_560_49" fill="white">
<rect x="61.1714" y="68.2527" width="4.60516" height="15.2078" rx="1" transform="rotate(-45 61.1714 68.2527)"/>
</mask>
<rect x="61.1714" y="68.2527" width="4.60516" height="15.2078" rx="1" transform="rotate(-45 61.1714 68.2527)" stroke="#666666" stroke-width="4" mask="url(#path-15-inside-1_560_49)"/>
<ellipse cx="49.6936" cy="82.9777" rx="25.4877" ry="2.16275" fill="#D9D9D9" fill-opacity="0.3"/>
</svg>
