<svg width="72" height="44" viewBox="0 0 72 44" fill="none" xmlns="http://www.w3.org/2000/svg">
<path d="M55.2678 23.4253L66.6738 25.4987L63.5347 17.3415L55.2678 23.4253Z" fill="#143463" fill-opacity="0.2"/>
<path d="M55.2678 31.537V13.0104L51.2119 12.2717V31.537H20.793V35.5929H28.9047V38.6348L31.9466 40.6627L34.9885 38.6348V35.5929H55.2678V38.6348L58.3097 40.6627L61.3516 38.6348V35.5929H67.4354V31.537H55.2678Z" fill="#143463" fill-opacity="0.2"/>
<path d="M45.1281 11.2577V27.4811M39.0444 11.2577V27.4811M32.9606 11.2577V27.4811M26.8768 20.0922V27.4811M20.793 31.537H51.2119M20.793 31.537V35.5929H24.8489M20.793 31.537V17.3686M51.2119 31.537V7.20186H32.9606M51.2119 31.537H67.4354V35.5929H65.4074M39.0444 35.5929H51.2119" stroke="#143463" stroke-linecap="round" stroke-linejoin="round"/>
<path d="M28.9047 38.6347L31.9466 40.6627L34.9885 38.6347V35.5928L31.9466 33.5649L28.9047 35.5928V38.6347ZM55.2678 38.6347L58.3097 40.6627L61.3516 38.6347V35.5928L58.3097 33.5649L55.2678 35.5928V38.6347Z" stroke="#143463" stroke-linejoin="round"/>
<path d="M63.5367 17.3415H55.2678V23.4253L66.6738 25.4987" stroke="#143463" stroke-linecap="round" stroke-linejoin="round"/>
<path d="M67.4353 31.537V27.4812L62.3655 14.2996L51.2119 12.2717" stroke="#143463" stroke-linecap="round" stroke-linejoin="round"/>
<path d="M24.7093 3.44725V12.8864M24.7093 12.8864V15.2461M24.7093 12.8864L26.4791 14.6562M24.7093 12.8864L22.9395 14.6562M26.4791 4.03719L24.7093 5.80703L22.9395 4.03719" stroke="#97D3DF" stroke-linecap="round"/>
<path opacity="0.5" d="M19.6004 6.39696L21.6439 7.57685M21.6439 7.57685L24.7093 9.34668M21.6439 7.57685L20.9962 5.15926M21.6439 7.57685L19.2263 8.22461M24.7093 9.34668L27.7746 11.1165M24.7093 9.34668L27.7746 7.57685M24.7093 9.34668L21.6439 11.1165M27.7746 11.1165L29.8182 12.2964M27.7746 11.1165L30.1922 10.4688M27.7746 11.1165L28.4224 13.5347M27.7746 7.57685L29.8182 6.39696M27.7746 7.57685L28.4224 5.15926M27.7746 7.57685L30.1922 8.22461M21.6439 11.1165L19.6004 12.2964M21.6439 11.1165L19.2263 10.4688M21.6439 11.1165L20.9962 13.5353" stroke="#97D3DF" stroke-linecap="round"/>
<path d="M6.6213 37.4788C6.7012 37.2408 6.8179 37.0106 6.97269 36.7964C7.79751 35.6549 9.39155 35.3981 10.5331 36.223C11.1016 36.6338 11.4507 37.2353 11.556 37.8768" stroke="#666666" stroke-opacity="0.3" stroke-linecap="round"/>
<path d="M6.08385 39.5881C6.13344 38.9599 5.81277 38.3404 5.22435 38.0469C4.44576 37.6585 3.49322 37.988 3.0968 38.7827C3.02553 38.9256 2.97709 39.0738 2.95009 39.223" stroke="#666666" stroke-opacity="0.3" stroke-linecap="round"/>
<path d="M15.2656 34.3293C15.1187 33.9907 14.8881 33.7123 14.6048 33.5052C13.9835 33.051 13.1092 32.9392 12.3103 33.2858C12.0157 33.4136 11.7596 33.5915 11.549 33.8034" stroke="#666666" stroke-opacity="0.3" stroke-linecap="round"/>
<path d="M6.75818 35.3709C6.67524 35.1339 6.62618 34.8805 6.61698 34.6164C6.56795 33.2089 7.66919 32.0282 9.07667 31.9791C9.77766 31.9547 10.4224 32.2156 10.8991 32.6576" stroke="#666666" stroke-opacity="0.3" stroke-linecap="round"/>
<path d="M5.41228 33.4076C4.91373 33.0222 4.21975 32.9514 3.65201 33.2832C2.90079 33.7221 2.65505 34.6996 3.10313 35.4664C3.18368 35.6043 3.28117 35.7259 3.39126 35.8302" stroke="#666666" stroke-opacity="0.3" stroke-linecap="round"/>
<path d="M16.0479 37.2434C15.929 36.894 15.7218 36.5978 15.4563 36.3683C14.874 35.865 14.0117 35.6824 13.1872 35.9628C12.8832 36.0663 12.6135 36.2227 12.3864 36.4169" stroke="#666666" stroke-opacity="0.3" stroke-linecap="round"/>
<path d="M16.154 39.1361C16.1613 38.9478 16.2076 38.7555 16.2966 38.572C16.6171 37.9114 17.3706 37.6154 17.9797 37.9109C18.2686 38.051 18.473 38.299 18.574 38.5915" stroke="#666666" stroke-opacity="0.3" stroke-linecap="round"/>
</svg>
